<?xml version="1.0" encoding="UTF-8"?>
<svg id="Layer_1" data-name="Layer 1" xmlns="http://www.w3.org/2000/svg" viewBox="0 0 513.36 600">
  <defs>
    <style>
      .cls-1 {
        fill: #fd001f;
      }

      .cls-2 {
        fill: #ff5b7d;
      }

      .cls-3 {
        fill: #32deed;
      }

      .cls-4 {
        fill: #00b5c4;
      }

      .cls-5 {
        fill: #21005a;
      }
    </style>
  </defs>
  <g>
    <polygon id="Pink_right_rectangel" data-name="Pink right rectangel" class="cls-2" points="266.69 193.33 446.69 193.33 483.36 237.33 513.36 273.33 513.36 553.33 266.69 553.33 266.69 193.33"/>
    <polygon class="cls-1" points="446.69 193.33 513.36 273.33 446.69 273.33 446.69 193.33"/>
  </g>
  <path class="cls-5" d="M348.69,436.24v-100.25h47.55c18.19,0,30.93,10.31,30.93,25.35,0,11.46-8.31,20.34-20.62,23.34,13.89,2.15,22.77,11.6,22.77,24.35,0,16.04-13.18,27.21-32.22,27.21h-48.41ZM365.73,377.81h29.93c8.59,0,14.46-5.73,14.46-13.75,0-7.45-5.44-12.75-13.18-12.75h-31.22v26.49ZM365.73,420.77h32.22c8.59,0,13.89-6.16,13.89-14.18s-6.3-13.89-15.47-13.89h-30.65v28.07Z"/>
  <g>
    <polygon id="blue_left_rectangle" data-name="blue left rectangle" class="cls-3" points="246.67 53.15 66.67 53.15 30 97.15 0 133.15 0 413.15 246.67 413.15 246.67 53.15"/>
    <polygon id="left_blue_corner" data-name="left blue corner" class="cls-4" points="66.67 53.15 0 133.15 66.67 133.15 66.67 53.15"/>
  </g>
  <path class="cls-5" d="M73.71,291.23l40.96-100.25h17.19l41.1,100.25h-17.76l-10.17-24.78h-43.39l-10.17,24.78h-17.76ZM107.8,251.28h31.08l-15.47-38.09-15.61,38.09Z"/>
  <rect id="vertical_line" data-name="vertical line" class="cls-5" x="246.69" width="20" height="600"/>
</svg>